<?xml version="1.0" encoding="UTF-8" standalone="no"?>
<svg
        xmlns="http://www.w3.org/2000/svg"
        width="210mm"
        height="297mm"
        viewBox="0 0 210 297"
        version="1.1"
        id="svg94">
    <defs
            id="defs88">
        <linearGradient>
            id="linearGradient961">
            <stop
                    style="stop-color:#ff0000;stop-opacity:1;"
                    offset="0"
                    id="stop959"/>
        </linearGradient>
    </defs>
    <g>
        <rect
                style="fill:#e5ff80;stroke-width:0.264583"
                id="rect12"
                width="107.34524"
                height="55.940475"
                x="48.75893"
                y="112.12917"/>
        <rect
                style="fill:#e5ff80;stroke-width:0.264583"
                id="rect14"
                width="24.190477"
                height="5.2916665"
                x="102.80953"
                y="143.12321"/>
        <path
                style="fill:#800000;stroke-width:0.377976"
                d="m 49.03008,140.17314 v -27.78125 h 53.48363 53.48362 v 27.78125 27.78126 H 102.51371 49.03008 Z"
                id="path26"/>
        <rect
                style="fill:#666666;stroke-width:0.264583"
                id="rect42"
                width="10.205358"
                height="13.607142"
                x="97.51786"
                y="98.899994"/>
        <ellipse
                style="fill:#ececec;stroke-width:0.264583"
                id="path56"
                cx="101.92269"
                cy="78.807144"
                rx="22.651093"
                ry="20.847023"
                onclick=""/>
        <path
                style="fill:none;stroke:#000000;stroke-width:0.264583px;stroke-linecap:butt;stroke-linejoin:miter;stroke-opacity:1"
                d="m 102.14806,99.561456 c 0.0315,-0.12599 0.0534,-0.25477 0.0945,-0.37798 0.0493,-0.14782 0.23333,-0.71161 0.0945,-0.85044 -0.0223,-0.0223 -0.0722,0.0223 -0.0945,0 -0.0223,-0.0223 0.0223,-0.0722 0,-0.0945 -0.22951,-0.2295 -0.13875,0.0281 -0.28348,-0.18899 -0.13762,-0.20642 -0.27633,-0.5884 -0.18899,-0.85044 0.01,-0.0299 0.0663,0.0141 0.0945,0 0.14415,-0.0721 0.23705,-0.21302 0.37798,-0.28348 0.0845,-0.0423 0.19384,0.0299 0.28348,0 0.23393,-0.078 0.39526,-0.72138 0.28348,-0.94494 -0.29104,-0.5821 -1.03943,-0.53366 -1.03943,-1.13393 0,-0.042 -0.0293,-0.31934 0,-0.37798 0.19724,-0.39448 0.12809,-0.26584 0.47247,-0.47247 0.063,-0.063 0.12599,-0.12599 0.18899,-0.18899 0,-0.0315 -0.0223,-0.0722 0,-0.0945 0.0498,-0.0498 0.13918,-0.0447 0.18898,-0.0945 0.0668,-0.0668 -0.0134,-0.18994 0,-0.28349 0.0227,-0.15899 0.0746,-0.3131 0.0945,-0.47247 0.0156,-0.12502 0.0564,-0.26528 0,-0.37797 -0.50302,-1.00606 -1.03943,-0.54349 -1.03943,-1.98438 0,-0.0945 -0.059,-0.20969 0,-0.28348 0.21026,-0.26282 0.48876,-0.16835 0.66146,-0.28348 0.34527,-0.23019 -0.10132,-0.13833 0.18898,-0.28348 0.34834,-0.17417 0.28349,-0.36763 0.28349,-0.75596 0,-0.23924 -0.26218,-0.20427 -0.37798,-0.37797 -0.0781,-0.11721 -0.063,-0.44098 -0.18899,-0.37798 -0.063,0.0315 0.1443,0.23879 0.0945,0.18899 -0.1834,-0.18341 -0.66833,-0.64084 -0.56696,-0.94494 0.14588,-0.43764 1.22842,-0.24478 1.22842,-0.85045 0,-0.46605 -0.043,-1.0824 -0.37798,-1.41741 -0.18418,-0.184184 -0.29899,-0.0078 -0.47246,-0.09449 -0.25109,-0.125545 -0.41983,-0.34625 -0.56697,-0.566965 -0.12064,-0.180962 0.21358,-0.710636 0.28348,-0.850445 0.21795,-0.435888 -0.0618,0.386472 0.28349,-0.188989 0.0668,-0.111361 0.0463,-0.257395 0.0945,-0.377976 0.0826,-0.206438 0.0698,-0.08213 0.28348,-0.188989"
                id="path68"/>
        <path
                style="fill:none;stroke:#000000;stroke-width:0.264583px;stroke-linecap:butt;stroke-linejoin:miter;stroke-opacity:1"
                d="m 102.52603,82.83599 c -0.0157,0.01177 -0.059,0.01955 -0.0472,0.03529 0.0118,0.01574 0.035,-0.05064 0.0472,-0.03529 0.15056,0.188201 0.16273,0.371213 0.23625,0.555006 0.0211,0.05272 0.0691,0.09095 0.0945,0.141743 0.0964,0.192765 0.0483,0.562541 0,0.755951 -0.0413,0.165333 -0.23835,0.240462 -0.28349,0.33073 -0.0358,0.07153 -0.0932,0.116112 -0.14174,0.188986 -0.29004,0.435063 0.15732,-0.220133 -0.0473,0.188989 -0.0199,0.03984 -0.0724,0.05582 -0.0945,0.09449 -0.15276,0.26734 -0.27061,0.618432 -0.18898,0.944941 0.074,0.295894 0.31194,0.582898 0.47247,0.850447 0.0543,0.09045 0.0556,0.0083 0.14174,0.09449 0.0426,0.0426 0.15049,0.253741 0.18899,0.33073 0.0403,0.08052 0,0.287244 0,0.377975 0,0.03053 0.0113,0.177729 0,0.18899 -0.0223,0.02228 -0.0683,-0.01746 -0.0945,0 -0.13246,0.0883 -0.0888,0.277772 -0.18899,0.377975 -0.0352,0.03522 -0.10653,0.01204 -0.14174,0.04725 -0.0747,0.07471 -0.0757,0.200986 -0.14174,0.283483 -0.18703,0.233775 0.009,-0.05658 -0.23624,0.188986 -0.0913,0.09129 -0.22069,0.487389 -0.18899,0.614212 0.15652,0.626068 0.61421,1.24805 0.61421,1.937128 0,0.298956 0.0393,-0.0052 -0.14174,0.236236 -0.0264,0.0352 -0.0756,0.321289 -0.0945,0.377976 -0.0339,0.101774 -0.19197,0.10046 -0.23623,0.188989 -0.0727,0.145317 -0.17579,0.498856 -0.0945,0.661458 0.029,0.05808 0.0182,0.130908 0.0473,0.188987 0.0237,0.04745 0.10979,0.07784 0.14174,0.141743 0.0282,0.05634 -0.0282,0.132641 0,0.188986 0.0167,0.03341 0.20746,0.145831 0.23624,0.188989 0.0973,0.145934 0.29402,0.761432 0.33073,0.944941 0.0209,0.10422 0.0341,0.687843 0,0.755952 -0.007,0.01408 -0.0402,-0.01408 -0.0472,0 -0.0141,0.02817 0.0175,0.06829 0,0.09449 -0.0195,0.0293 -0.0696,0.02236 -0.0945,0.04725 -0.13105,0.131051 -0.1884,0.361249 -0.28349,0.519718 -0.0344,0.0573 -0.11185,0.08198 -0.14174,0.14174 -0.0255,0.05095 -0.0141,0.321638 0,0.377976 0.0425,0.169815 0.0526,0.352224 0.0945,0.519718 0.0344,0.137483 0.13169,0.216128 0.18899,0.330729 0.0884,0.176798 0.0541,0.337974 0.0945,0.519719 0.0184,0.08279 0.0761,0.153442 0.0945,0.236233 0.0286,0.128879 0.0274,0.429795 0,0.566965 -0.0816,0.408109 -0.28248,0.659649 -0.47247,1.004165"
                id="path130"/>
        <ellipse
                style="mix-blend-mode:normal;fill:#ebedea;fill-opacity:0.5;stroke:#000000;stroke-width:0.065;stroke-miterlimit:4;stroke-dasharray:none;stroke-opacity:1;image-rendering:auto"
                id="path134"
                cx="102.47159"
                cy="81.671394"
                rx="1.2361215"
                ry="1.0857824"/>
    </g>
</svg>
